<svg width="284" height="327" viewBox="0 0 284 327" fill="none" xmlns="http://www.w3.org/2000/svg">
<mask id="mask0_65_223" style="mask-type:luminance" maskUnits="userSpaceOnUse" x="0" y="0" width="284" height="327">
<path d="M284 0H0V327H284V0Z" fill="white"/>
</mask>
<g mask="url(#mask0_65_223)">
<path d="M159.278 93.1608C163.771 90.9144 166.251 86.7667 164.821 83.9101C163.392 81.0536 158.599 80.5495 154.106 82.8047C152.296 83.6802 150.725 84.9714 149.525 86.581L130.618 96.3445L135.384 105.135L153.514 94.5758C155.518 94.5758 157.495 94.0894 159.278 93.1696V93.1608Z" fill="#FFB6B6"/>
<path d="M52.1748 320.367H61.1781L65.459 285.602H52.1748V320.367Z" fill="#FFB6B6"/>
<path d="M83.0065 320.164C83.289 320.633 83.4302 322.163 83.4302 322.711C83.4302 324.4 82.062 325.771 80.3761 325.771H52.5102C51.3627 325.771 50.4271 324.833 50.4271 323.684V322.525C50.4271 322.525 49.0501 319.032 51.8835 314.725C51.8835 314.725 55.4142 318.094 60.6837 312.815L62.2372 309.993L73.4913 318.236L79.7318 319.005C81.0999 319.173 82.3092 318.979 83.0065 320.164Z" fill="#2F2E41"/>
<path d="M66.3064 282.135L74.3034 286.283L94.0576 257.382L82.2651 251.262L66.3064 282.135Z" fill="#FFB6B6"/>
<path d="M93.7751 296.153C93.8104 296.701 93.2367 298.125 92.9895 298.611C92.2128 300.115 90.368 300.699 88.8763 299.92L64.1261 287.088C63.1022 286.557 62.705 285.301 63.2346 284.276L63.7642 283.241C63.7642 283.241 64.1438 279.5 68.6366 276.988C68.6366 276.988 70.2254 281.605 77.3221 279.35L79.9966 277.563L86.2018 290.068L91.3831 293.623C92.5217 294.402 93.678 294.782 93.7575 296.162L93.7751 296.153Z" fill="#2F2E41"/>
<path d="M43.0391 44.3871H66.6418L66.121 52.0989L81.5149 101.235L84.3924 133.993L55.5466 138.812L42.077 78.1085L44.9634 50.1709L43.0391 44.3871Z" fill="#6C63FF"/>
<path d="M44.4867 50.6485L19.4806 63.1713L34.8656 115.199L31.9792 168.192C31.9792 168.192 71.4082 180.714 69.484 145.065C67.5598 109.416 67.5598 103.632 67.5598 103.632L44.4779 50.6396L44.4867 50.6485Z" fill="#2F2E41"/>
<path d="M84.3923 57.1399C84.3923 57.1399 90.6417 52.5765 93.528 59.3243C96.4143 66.0721 115.171 100.271 115.171 100.271L144.502 87.2619L149.313 97.8568C149.313 97.8568 125.269 120.983 110.846 118.091C96.4232 115.2 84.8778 90.1538 84.8778 90.1538L84.4012 57.1399H84.3923Z" fill="#2F2E41"/>
<path d="M34.8655 158.57C34.8655 158.57 33.9034 173.984 35.8276 186.507C37.7519 199.03 50.736 305.501 50.736 305.501L67.0831 304.537L68.5218 179.759L91.6037 216.373L71.4082 271.293L85.3544 277.554L114.686 217.337L94.4901 148.93L88.7174 131.587L45.4399 136.407L34.8567 158.57H34.8655Z" fill="#2F2E41"/>
<path d="M99.3007 162.417C99.3007 162.417 73.3325 170.128 67.5598 103.641L66.2534 50.0383L90.6417 56.4324L87.7553 104.605L99.3007 162.417Z" fill="#2F2E41"/>
<path d="M72.3704 20.783C72.3704 21.349 72.3439 21.915 72.2909 22.481C72.238 23.047 72.1497 23.6042 72.0438 24.1614C71.929 24.7185 71.7966 25.2668 71.6289 25.8152C71.4612 26.3546 71.2759 26.8941 71.0552 27.4159C70.8345 27.9377 70.5962 28.4506 70.3314 28.9547C70.0666 29.4588 69.7753 29.9452 69.4576 30.4139C69.1398 30.8827 68.8044 31.3425 68.4425 31.7847C68.0806 32.2269 67.701 32.6426 67.3038 33.0494C66.9066 33.4474 66.483 33.8365 66.0416 34.1902C65.6003 34.5528 65.1501 34.8889 64.6735 35.2073C64.2057 35.5257 63.7202 35.8175 63.2171 36.0828C62.7139 36.3481 62.202 36.5958 61.6812 36.808C61.1604 37.0203 60.622 37.2148 60.0836 37.3829C59.5451 37.5509 58.9891 37.6836 58.433 37.7985C57.8769 37.9135 57.3208 37.9931 56.7559 38.0462C56.191 38.0992 55.6261 38.1257 55.0612 38.1257C54.4963 38.1257 53.9313 38.0992 53.3664 38.0462C52.8015 37.9931 52.2454 37.9046 51.6894 37.7985C51.1333 37.6836 50.586 37.5509 50.0388 37.3829C49.4915 37.2148 48.9619 37.0291 48.4411 36.808C47.9203 36.5869 47.4084 36.3481 46.9053 36.0828C46.4021 35.8175 45.9167 35.5257 45.4489 35.2073C44.981 34.8889 44.5221 34.5528 44.0807 34.1902C43.6394 33.8277 43.2245 33.4474 42.8185 33.0494C42.4213 32.6514 42.0329 32.2269 41.6798 31.7847C41.318 31.3425 40.9825 30.8915 40.6648 30.4139C40.347 29.9452 40.0557 29.4588 39.7909 28.9547C39.5261 28.4506 39.279 27.9377 39.0671 27.4159C38.8465 26.8941 38.6611 26.3546 38.4934 25.8152C38.3257 25.2757 38.1933 24.7185 38.0785 24.1614C37.9638 23.6042 37.8844 23.047 37.8314 22.481C37.7784 21.915 37.752 21.349 37.752 20.783C37.752 20.217 37.7784 19.651 37.8314 19.085C37.8844 18.519 37.9726 17.9618 38.0785 17.4047C38.1933 16.8475 38.3257 16.2992 38.4934 15.7509C38.6611 15.2114 38.8465 14.6719 39.0671 14.1502C39.2878 13.6284 39.5261 13.1154 39.7909 12.6113C40.0557 12.1072 40.347 11.6208 40.6648 11.1521C40.9825 10.6834 41.318 10.2235 41.6798 9.78132C42.0417 9.33913 42.4213 8.92347 42.8185 8.51666C43.2157 8.11868 43.6394 7.72956 44.0807 7.3758C44.5221 7.01321 44.9722 6.67714 45.4489 6.35877C45.9167 6.04039 46.4021 5.74854 46.9053 5.48323C47.4084 5.21791 47.9203 4.97029 48.4411 4.75804C48.9619 4.54578 49.5003 4.35122 50.0388 4.18319C50.5772 4.01516 51.1333 3.8825 51.6894 3.76753C52.2454 3.65256 52.8015 3.57296 53.3664 3.5199C53.9313 3.46684 54.4963 3.44031 55.0612 3.44031C55.6261 3.44031 56.191 3.46684 56.7559 3.5199C57.3208 3.57296 57.8769 3.6614 58.433 3.76753C58.9891 3.87365 59.5363 4.01516 60.0836 4.18319C60.622 4.35122 61.1604 4.53694 61.6812 4.75804C62.202 4.97913 62.7139 5.21791 63.2171 5.48323C63.7202 5.74854 64.2057 6.04039 64.6735 6.35877C65.1413 6.67714 65.6003 7.01321 66.0416 7.3758C66.483 7.7384 66.8978 8.11868 67.3038 8.51666C67.701 8.91463 68.0894 9.33913 68.4425 9.78132C68.8044 10.2235 69.1398 10.6745 69.4576 11.1521C69.7753 11.6208 70.0666 12.1072 70.3314 12.6113C70.5962 13.1154 70.8434 13.6284 71.0552 14.1502C71.267 14.6719 71.4612 15.2114 71.6289 15.7509C71.7966 16.2904 71.929 16.8475 72.0438 17.4047C72.1585 17.9618 72.238 18.519 72.2909 19.085C72.3439 19.651 72.3704 20.217 72.3704 20.783Z" fill="#FFB6B6"/>
<path d="M44.0012 37.6481C44.0012 37.6481 36.3043 28.9723 35.3422 25.1252C34.3801 21.2782 34.3801 10.6744 35.3422 9.71047C36.3043 8.74649 46.8876 -0.893265 50.736 0.0707105C54.5845 1.03469 62.2108 5.85456 69.0073 5.85456C70.9316 5.85456 71.8937 15.4855 71.8937 15.4855L64.1968 16.4495C64.1968 16.4495 54.5756 11.6296 55.5377 16.4495C56.4999 21.2693 48.803 21.2693 48.803 21.2693L49.7651 25.1252L46.8787 26.0892L44.9545 22.2333C44.9545 22.2333 45.9166 30.9091 48.803 34.7561C51.6893 38.6032 43.9924 37.6481 43.9924 37.6481H44.0012Z" fill="#2F2E41"/>
<path d="M36.3396 176.372C38.9788 180.653 43.3215 182.749 46.0402 181.068C48.7588 179.388 48.8206 174.55 46.1814 170.279C45.1487 168.554 43.7187 167.104 42.0152 166.051L30.6022 148.072L22.2963 153.617L34.4242 170.756C34.6096 172.755 35.2627 174.692 36.3396 176.381V176.372Z" fill="#FFB6B6"/>
<path d="M23.329 63.1802H18.5184C18.5184 63.1802 -0.715006 106.533 0.23828 115.208C0.23828 115.208 0.23828 122.92 5.04885 128.695C9.85942 134.479 30.055 167.237 30.055 167.237L38.714 160.489L21.4048 120.019L31.988 77.6222L23.329 63.1714V63.1802Z" fill="#2F2E41"/>
<path d="M283.462 325.762C283.462 326.071 283.214 326.319 282.905 326.319H0.556084C0.247148 326.319 0 326.071 0 325.762C0 325.452 0.247148 325.205 0.556084 325.205H282.905C283.214 325.205 283.462 325.452 283.462 325.762Z" fill="#E6E6E6"/>
</g>
</svg>
