<svg width="539" height="327" viewBox="0 0 539 327" fill="none" xmlns="http://www.w3.org/2000/svg">
<mask id="mask0_65_175" style="mask-type:luminance" maskUnits="userSpaceOnUse" x="0" y="0" width="539" height="327">
<path d="M538.56 0H0V326.79H538.56V0Z" fill="white"/>
</mask>
<g mask="url(#mask0_65_175)">
<path d="M428.53 49.52C432.14 47.73 436.82 49.82 438.98 54.17C440.22 56.66 440.36 59.35 439.58 61.54L439.63 61.64L453.81 86.88L479.19 73.54C483.95 70.61 489.68 69.82 492.99 74.32C497.1 79.89 494.93 87.84 488.56 90.56L455.45 104.71C450.75 106.72 445.3 104.53 443.3 99.83L431.42 65.59C429.21 64.88 427.15 63.14 425.92 60.65C423.76 56.29 424.93 51.31 428.54 49.52H428.53Z" fill="#9B616A"/>
<path d="M489.68 65.99L460.43 80.53L471.51 102L500.95 84.62" fill="#CACACB"/>
<path d="M457.64 301.31H446.67V315.76H457.64V301.31Z" fill="#9B616A"/>
<path d="M455.77 325.73H432.46C430.47 325.73 428.47 325.27 426.67 324.41L422.37 322.34C421.48 321.91 420.91 321 420.91 320.01C420.91 318.85 421.69 317.83 422.8 317.52L431.67 315.07L446.84 307.1V307.16C447.13 308.6 447.57 310.77 447.63 310.9C449.19 312.68 450.78 313.5 452.38 313.34C455.16 313.06 457.01 309.84 457.03 309.81V309.79H457.07C457.72 309.86 458.2 310.12 458.5 310.57C459.13 311.53 458.75 313 458.68 313.22C459.44 313.96 459.78 318.12 459.81 318.45C460.91 319.62 461.43 320.74 461.36 321.78C461.3 322.69 460.79 323.54 459.86 324.3C458.73 325.21 457.28 325.72 455.77 325.72V325.73Z" fill="#090814"/>
<path d="M529.976 294.682L519.443 297.746L523.479 311.621L534.012 308.557L529.976 294.682Z" fill="#9B616A"/>
<path d="M534.99 318.69L512.61 325.2C510.7 325.76 508.65 325.88 506.68 325.55L501.98 324.77C501.01 324.61 500.2 323.89 499.93 322.95C499.61 321.84 500.07 320.64 501.05 320.03L508.88 315.2L521.22 303.31L521.25 303.36C521.92 304.66 522.95 306.62 523.04 306.73C525.03 308.01 526.79 308.35 528.28 307.75C530.87 306.7 531.75 303.1 531.76 303.06V303.03H531.79C532.43 302.91 532.97 303.03 533.38 303.38C534.26 304.12 534.3 305.65 534.3 305.88C535.24 306.38 536.73 310.28 536.85 310.59C538.23 311.4 539.05 312.33 539.27 313.35C539.47 314.24 539.22 315.2 538.53 316.19C537.7 317.38 536.45 318.27 535 318.69H534.99Z" fill="#090814"/>
<path d="M498.73 41.63C498.73 31.79 490.75 23.81 480.9 23.81C471.05 23.81 463.07 31.79 463.07 41.63C463.07 49.61 468.32 56.37 475.56 58.64L479.01 81.41L496.58 66.77C496.58 66.77 492.78 61.94 490.75 56.49C495.56 53.3 498.73 47.84 498.73 41.63Z" fill="#9B616A"/>
<path d="M505.77 129.6L508.34 93.58C508.56 90.46 508.17 87.32 507.18 84.35L499.55 61.48L477.09 68.69L467.61 90.37L462.45 99.83C460.1 104.14 460.87 109.48 464.34 112.95L467.61 116.22L463.05 132.95L463.53 132.93L462.88 133.01C462.88 133.01 432.39 224.74 433.48 302.75H472.63L474.95 212.2L481.75 306.27L533.33 303.3L505.76 129.61L505.77 129.6Z" fill="#CACACB"/>
<path d="M504.46 65.05C504.46 65.05 503.63 71.36 495.91 71.57C485.48 71.85 480.26 71.99 480.26 71.99C480.26 71.99 493.49 39.81 488.05 43.44C482.61 47.07 468.11 31.87 468.11 31.87L463.83 39.89C463.83 39.89 453.61 36.19 464.94 27.13C464.94 27.13 478.46 16.68 492.81 22.96C507.16 29.23 504.46 65.06 504.46 65.06V65.05Z" fill="#090814"/>
<path d="M441.19 136.7C440.98 132.68 444.75 129.22 449.61 128.96C452.39 128.82 454.92 129.76 456.61 131.34H456.72L485.52 128.35L483.36 99.77C482.56 94.24 484.11 88.67 489.56 87.42C496.31 85.87 502.74 91.01 502.71 97.93L502.54 133.93C502.52 139.05 498.35 143.17 493.23 143.14L457.08 140.44C455.55 142.19 453.14 143.38 450.36 143.52C445.5 143.77 441.39 140.71 441.18 136.69L441.19 136.7Z" fill="#9B616A"/>
<path d="M480.6 87.15L482.33 119.76L506.44 118.12L502.18 84.21" fill="#CACACB"/>
<path d="M276.16 40.44H414.16C414.61 40.44 415.06 40.48 415.5 40.57C415.94 40.66 416.37 40.79 416.79 40.96C417.21 41.13 417.6 41.34 417.98 41.6C418.36 41.85 418.7 42.14 419.02 42.46C419.34 42.78 419.62 43.13 419.88 43.5C420.13 43.88 420.34 44.27 420.52 44.69C420.69 45.11 420.82 45.54 420.91 45.98C421 46.42 421.04 46.87 421.04 47.32C421.04 47.77 421 48.22 420.91 48.66C420.82 49.1 420.69 49.53 420.52 49.95C420.35 50.37 420.14 50.76 419.88 51.14C419.63 51.52 419.34 51.86 419.02 52.18C418.7 52.5 418.35 52.78 417.98 53.04C417.6 53.29 417.21 53.5 416.79 53.68C416.37 53.85 415.94 53.98 415.5 54.07C415.06 54.16 414.61 54.2 414.16 54.2H276.16C275.71 54.2 275.26 54.16 274.82 54.07C274.38 53.98 273.95 53.85 273.53 53.68C273.11 53.51 272.72 53.3 272.34 53.04C271.96 52.79 271.62 52.5 271.3 52.18C270.98 51.86 270.7 51.51 270.44 51.14C270.19 50.76 269.98 50.37 269.8 49.95C269.63 49.53 269.5 49.1 269.41 48.66C269.32 48.22 269.28 47.77 269.28 47.32C269.28 46.87 269.32 46.42 269.41 45.98C269.5 45.54 269.63 45.11 269.8 44.69C269.97 44.27 270.18 43.88 270.44 43.5C270.69 43.12 270.98 42.78 271.3 42.46C271.62 42.14 271.97 41.86 272.34 41.6C272.72 41.35 273.11 41.14 273.53 40.96C273.95 40.79 274.38 40.66 274.82 40.57C275.26 40.48 275.71 40.44 276.16 40.44Z" fill="#6C63FF"/>
<path d="M305.89 96.34H414.16C414.61 96.34 415.06 96.38 415.5 96.47C415.94 96.56 416.37 96.69 416.79 96.86C417.21 97.03 417.6 97.24 417.98 97.5C418.36 97.75 418.7 98.04 419.02 98.36C419.34 98.68 419.62 99.03 419.88 99.4C420.13 99.78 420.34 100.17 420.52 100.59C420.69 101.01 420.82 101.44 420.91 101.88C421 102.32 421.04 102.77 421.04 103.22C421.04 103.67 421 104.12 420.91 104.56C420.82 105 420.69 105.43 420.52 105.85C420.35 106.27 420.14 106.66 419.88 107.04C419.63 107.42 419.34 107.76 419.02 108.08C418.7 108.4 418.35 108.68 417.98 108.94C417.61 109.2 417.21 109.4 416.79 109.58C416.37 109.75 415.94 109.88 415.5 109.97C415.06 110.06 414.61 110.1 414.16 110.1H305.89C305.44 110.1 304.99 110.06 304.55 109.97C304.11 109.88 303.68 109.75 303.26 109.58C302.84 109.41 302.45 109.2 302.07 108.94C301.69 108.69 301.35 108.4 301.03 108.08C300.71 107.76 300.43 107.41 300.17 107.04C299.92 106.66 299.71 106.27 299.53 105.85C299.36 105.43 299.23 105 299.14 104.56C299.05 104.12 299.01 103.67 299.01 103.22C299.01 102.77 299.05 102.32 299.14 101.88C299.23 101.44 299.36 101.01 299.53 100.59C299.7 100.17 299.91 99.78 300.17 99.4C300.42 99.02 300.71 98.68 301.03 98.36C301.35 98.04 301.7 97.76 302.07 97.5C302.45 97.25 302.84 97.04 303.26 96.86C303.68 96.69 304.11 96.56 304.55 96.47C304.99 96.38 305.44 96.34 305.89 96.34Z" fill="#6C63FF"/>
<path d="M393.74 132.71H414.15C417.95 132.71 421.03 135.79 421.03 139.59C421.03 143.39 417.95 146.47 414.15 146.47H393.74C389.94 146.47 386.86 143.39 386.86 139.59C386.86 135.79 389.94 132.71 393.74 132.71Z" fill="#6C63FF"/>
<path d="M145.46 78.59H248.4C248.85 78.59 249.3 78.63 249.74 78.72C250.18 78.81 250.61 78.94 251.03 79.11C251.45 79.28 251.84 79.49 252.22 79.75C252.6 80 252.94 80.29 253.26 80.61C253.58 80.93 253.86 81.28 254.12 81.65C254.37 82.03 254.58 82.42 254.76 82.84C254.94 83.26 255.06 83.69 255.15 84.13C255.24 84.57 255.28 85.02 255.28 85.47C255.28 85.92 255.24 86.37 255.15 86.81C255.06 87.25 254.93 87.68 254.76 88.1C254.59 88.52 254.38 88.91 254.12 89.29C253.87 89.67 253.58 90.01 253.26 90.33C252.94 90.65 252.59 90.93 252.22 91.19C251.84 91.44 251.45 91.65 251.03 91.83C250.61 92 250.18 92.13 249.74 92.22C249.3 92.31 248.85 92.35 248.4 92.35H145.46C145.01 92.35 144.56 92.31 144.12 92.22C143.68 92.13 143.25 92 142.83 91.83C142.41 91.66 142.02 91.45 141.64 91.19C141.26 90.94 140.92 90.65 140.6 90.33C140.28 90.01 140 89.66 139.74 89.29C139.49 88.91 139.28 88.52 139.1 88.1C138.92 87.68 138.8 87.25 138.71 86.81C138.62 86.37 138.58 85.92 138.58 85.47C138.58 85.02 138.62 84.57 138.71 84.13C138.8 83.69 138.93 83.26 139.1 82.84C139.27 82.42 139.48 82.03 139.74 81.65C139.99 81.27 140.28 80.93 140.6 80.61C140.92 80.29 141.27 80.01 141.64 79.75C142.02 79.5 142.41 79.29 142.83 79.11C143.25 78.94 143.68 78.81 144.12 78.72C144.56 78.63 145.01 78.59 145.46 78.59Z" fill="#CACACB"/>
<path d="M145.46 114.08H175.63C179.43 114.08 182.51 117.16 182.51 120.96C182.51 124.76 179.43 127.84 175.63 127.84H145.46C141.66 127.84 138.58 124.76 138.58 120.96C138.58 117.16 141.66 114.08 145.46 114.08Z" fill="#CACACB"/>
<path d="M315.65 59.96H414.16C414.61 59.96 415.06 60 415.5 60.09C415.94 60.18 416.37 60.31 416.79 60.48C417.21 60.65 417.6 60.86 417.98 61.12C418.36 61.37 418.7 61.66 419.02 61.98C419.34 62.3 419.62 62.65 419.88 63.02C420.13 63.4 420.34 63.79 420.52 64.21C420.69 64.63 420.82 65.06 420.91 65.5C421 65.94 421.04 66.39 421.04 66.84C421.04 67.29 421 67.74 420.91 68.18C420.82 68.62 420.69 69.05 420.52 69.47C420.35 69.89 420.14 70.28 419.88 70.66C419.63 71.04 419.34 71.38 419.02 71.7C418.7 72.02 418.35 72.3 417.98 72.56C417.6 72.81 417.21 73.02 416.79 73.2C416.37 73.37 415.94 73.5 415.5 73.59C415.06 73.68 414.61 73.72 414.16 73.72H315.65C315.2 73.72 314.75 73.68 314.31 73.59C313.87 73.5 313.44 73.37 313.02 73.2C312.6 73.03 312.21 72.82 311.83 72.56C311.45 72.31 311.11 72.02 310.79 71.7C310.47 71.38 310.19 71.03 309.93 70.66C309.68 70.28 309.47 69.89 309.29 69.47C309.12 69.05 308.99 68.62 308.9 68.18C308.81 67.74 308.77 67.29 308.77 66.84C308.77 66.39 308.81 65.94 308.9 65.5C308.99 65.06 309.12 64.63 309.29 64.21C309.46 63.79 309.67 63.4 309.93 63.02C310.18 62.64 310.47 62.3 310.79 61.98C311.11 61.66 311.46 61.38 311.83 61.12C312.21 60.87 312.6 60.66 313.02 60.48C313.44 60.31 313.87 60.18 314.31 60.09C314.75 60 315.2 59.96 315.65 59.96Z" fill="#6C63FF"/>
<path d="M14.6234 281.446L7.91345 290.55L17.018 297.26L23.7279 288.156L14.6234 281.446Z" fill="#E8989B"/>
<path d="M0.82998 296.31C0.51998 295.11 0.60998 294.09 1.11998 293.3C1.69998 292.39 2.81998 291.78 4.44998 291.49C4.67998 291.23 7.49998 287.99 8.58998 287.84C8.66998 287.62 9.24998 286.16 10.37 285.75C10.89 285.56 11.46 285.64 12.04 285.98H12.07V286.02C12.07 286.06 11.63 289.86 13.77 291.79C15 292.9 16.82 293.2 19.21 292.67C19.34 292.59 21.03 291.06 22.14 290.04L22.18 290L29.89 305.89L35.75 313.35C36.49 314.29 36.51 315.61 35.8 316.57C35.2 317.39 34.16 317.79 33.16 317.61L28.33 316.7C26.31 316.32 24.37 315.47 22.72 314.25L3.36998 299.99C2.11998 299.07 1.21998 297.76 0.83998 296.31H0.82998Z" fill="#090814"/>
<path d="M122.55 305.2H111.24V316.51H122.55V305.2Z" fill="#E8989B"/>
<path d="M108.95 325.33C107.98 324.55 107.46 323.67 107.4 322.73C107.33 321.65 107.87 320.5 109 319.3C109.03 318.95 109.38 314.67 110.16 313.9C110.09 313.67 109.69 312.15 110.35 311.16C110.66 310.7 111.16 310.42 111.83 310.35H111.86L111.87 310.37C111.89 310.4 113.8 313.72 116.67 314.01C118.32 314.18 119.96 313.33 121.57 311.49C121.63 311.35 122.08 309.12 122.37 307.64V307.58L138.02 315.8L147.16 318.33C148.31 318.65 149.11 319.7 149.11 320.89C149.11 321.91 148.52 322.85 147.6 323.29L143.17 325.42C141.32 326.31 139.25 326.78 137.2 326.78H113.16C111.6 326.78 110.1 326.26 108.94 325.32L108.95 325.33Z" fill="#090814"/>
<path d="M53.64 125.76H107.84L125.9 306.65H107.84L79.99 190.58L71.71 223.33L26.1 294.87L8.13 277.38L46.87 216.2L53.64 125.76Z" fill="#090814"/>
<path d="M69.92 23.76C69.92 13.61 78.15 5.38 88.3 5.38C98.45 5.38 106.68 13.61 106.68 23.76C106.68 31.99 101.27 38.96 93.8 41.3L90.25 64.78L72.13 49.69C72.13 49.69 76.04 44.71 78.14 39.09C73.18 35.8 69.91 30.17 69.91 23.77L69.92 23.76Z" fill="#E8989B"/>
<path d="M78.66 39.65C78.66 39.65 75.15 21.92 80.22 24.03C85.29 26.14 83.93 29.71 83.93 29.71L88.79 22.53V14.3L91.96 10.71L105.47 16.41C105.47 16.41 112.65 -4.69002 92.17 2.05998C92.17 2.05998 74.65 -5.12002 69.58 7.33998C57.57 35.39 78.66 39.65 78.66 39.65Z" fill="#090814"/>
<path d="M53.83 126.95L101.87 127.16C105.87 127.36 109.17 124.99 108.79 122.18L99.69 54.73L83.41 46.2C79.98 44.4 75.77 45.07 73.06 47.84L63.41 57.7C60.88 60.29 59.25 63.26 58.66 66.37L54.16 111.02C53.86 112.59 54.12 114.18 54.9 115.66L56.67 119.01C58.54 122.56 48.47 126.68 53.84 126.95H53.83Z" fill="#6C63FF"/>
<path d="M112.1 134.98L97.21 125.19L102.93 116.5L117.82 126.29C120.4 125.72 123.44 126.25 126.09 127.99C130.73 131.04 132.44 136.63 129.92 140.47C127.39 144.31 121.58 144.95 116.94 141.89C114.29 140.15 112.6 137.57 112.1 134.97V134.98Z" fill="#E8989B"/>
<path d="M67.16 77.84L71.83 114.89L102.3 133.86L116.1 120.31L86.43 104.24L90.89 60.54" fill="#6C63FF"/>
</g>
</svg>
