<svg width="249" height="240" viewBox="0 0 249 240" fill="none" xmlns="http://www.w3.org/2000/svg">
<path fill-rule="evenodd" clip-rule="evenodd" d="M98.2034 187.131C143.913 187.131 177.98 148.456 174.03 101.019C170.079 53.5817 129.567 14.906 83.8412 14.906C38.1155 14.906 4.04797 53.5978 8.01497 101.035C11.9658 148.472 52.4939 187.147 98.2034 187.147" fill="#DCDCDE"/>
<path fill-rule="evenodd" clip-rule="evenodd" d="M19.6406 115.363L39.1841 137.516L46.4219 147.778L55.8293 152.054L74.4823 156.959L93.3943 153.587L104.923 144.583L113.796 133.369C113.796 133.369 119.139 113.798 118.006 110.425C116.872 107.037 107.449 98.7114 105.619 98.2757C103.773 97.8401 97.2804 89.2885 97.2804 89.2885C97.2804 89.2885 99.0453 80.3981 100.94 78.9137C102.85 77.4293 114.962 78.7846 119.544 79.0912C124.126 79.4139 135.153 93.3223 135.153 93.3223L137.663 115.266L134.295 137.355L123.803 160.831C123.803 160.831 112.306 170.625 99.5796 172.9C88.3263 174.901 80.2952 173.901 78.5464 174.385C74.8061 175.417 49.5793 164.849 46.3571 163.703C43.135 162.525 30.1653 144.664 30.1653 144.664L25.8583 131.562L19.6568 115.33L19.6406 115.363Z" fill="#FFCA02"/>
<path fill-rule="evenodd" clip-rule="evenodd" d="M143.945 54.34L111.707 37.3821L101.426 36.1075L82.0602 40.0444L68.88 50.5322L60.7517 63.3111L58.6792 77.4615C58.6792 77.4615 63.8606 97.0817 66.516 99.4213C69.1877 101.793 81.5097 104.294 83.3393 103.745C85.1528 103.213 95.0622 107.376 95.0622 107.376C95.0622 107.376 97.9929 115.944 97.0862 118.186C96.1794 120.429 85.0071 125.302 80.8782 127.319C76.7493 129.32 60.2174 122.801 60.2174 122.801L42.536 103.149L36.6583 87.2394L39.6538 62.7948C39.6538 62.7948 41.2892 44.417 51.1986 36.0913C59.9422 28.7499 69.6734 27.4914 70.9526 26.2005C73.6728 23.4253 94.0097 24.8936 97.3614 24.2805C100.746 23.6835 117.893 28.1529 117.893 28.1529L131.202 36.5915L143.945 54.3562V54.34Z" fill="#A6CC35"/>
<path fill-rule="evenodd" clip-rule="evenodd" d="M77.7369 45.0462L68.6694 54.0818L61.4803 71.4593L59.9583 86.1744C59.9583 86.1744 61.8527 97.5012 64.1195 99.0179C66.3864 100.535 72.0535 109.57 74.709 109.57C77.3645 109.57 89.0711 107.311 89.816 105.424C90.577 103.536 96.2441 94.0967 96.2441 94.0967L95.1107 84.6577L107.578 76.3482L120.807 79.3654C120.807 79.3654 137.808 90.305 137.808 109.167C137.808 128.029 136.675 157.862 104.567 169.948C111.367 170.319 127.996 165.042 127.996 165.042L138.942 155.232C138.942 155.232 149.531 142.405 151.426 135.596C153.32 128.787 155.215 116.718 155.215 114.459C155.215 112.2 155.96 88.0461 154.081 84.2705C152.187 80.4788 142.277 59.3741 140.772 56.3569C139.266 53.3396 108.177 40.0928 108.177 40.0928L80.0037 43.8845L77.7369 45.0301V45.0462Z" fill="#EB1923"/>
<path fill-rule="evenodd" clip-rule="evenodd" d="M55.4408 31.0734L38.4393 55.2275L35.4115 68.8132V83.8995L39.2166 102.923L49.7736 117.864L56.2018 122.027L67.5522 129.191C67.5522 129.191 77.7531 131.449 80.7648 129.562C83.7764 127.674 92.86 121.639 92.86 119.752C92.86 117.864 99.6606 109.554 99.6606 109.554C99.6606 109.554 109.117 105.036 111.011 106.537C112.889 108.037 114.395 120.123 115.156 124.657C115.917 129.191 104.955 143.147 104.955 143.147L92.1152 154.474L66.8074 157.104L30.9102 143.147C30.9102 143.147 22.96 115.218 21.0817 111.829C19.1873 108.425 20.3369 87.2878 20.7093 83.8833C21.0817 80.495 29.0157 56.3408 29.0157 56.3408L41.111 40.8673L55.4731 31.0573L55.4408 31.0734Z" fill="#00A6E3"/>
<path d="M8.06352 125.399C15.5765 138.178 21.4703 151.263 30.5378 163.026C36.6745 170.996 43.9608 178.305 52.4939 183.695C58.9058 187.502 65.7388 190.294 72.9765 192.069C73.8509 192.359 74.7576 192.633 75.6643 192.908C72.847 192.714 70.0782 192.198 67.3903 191.343C59.4401 188.777 52.1053 185.034 45.3695 180.08C39.1356 175.611 33.4523 170.545 28.3033 164.881C21.3894 157.265 14.7993 149.311 9.97416 140.243C7.78826 136.548 5.05185 132.659 3.30313 128.723C1.45726 126.06 0.0323836 123.011 0 119.751C0 119.751 1.05247 113.088 3.85365 115.847C3.85365 115.847 5.68333 116.476 7.07582 122.446C7.07582 122.446 7.82065 124.995 8.06352 125.399ZM95.6774 5.88656C98.2681 6.35447 100.924 6.88693 103.53 7.12895C106.915 8.22614 110.38 9.08129 113.667 10.5012C121.277 14.3574 128.498 18.843 135.347 23.9255C140.658 27.9109 145.694 32.348 150.114 37.3176C154.794 42.6744 159.085 48.596 162.226 55.0016C163.327 57.2282 164.412 59.4549 165.529 61.6815C165.351 60.8586 165.156 60.0357 164.946 59.229C162.663 53.0815 159.133 47.3374 155.215 42.1097C150.001 34.7037 142.763 25.2163 136.076 19.1334C129.664 13.3087 124.952 10.001 117.067 6.38674C113.019 4.53122 107.935 2.19164 103.579 1.32034C102.348 1.06218 100.762 0.449053 99.2234 0.352243C99.2234 0.352243 93.9449 -0.825614 93.2325 1.98188C93.2325 1.98188 91.9371 5.22502 95.726 5.91883M98.7053 190.262C100.373 189.6 102.235 189.535 103.935 188.922C110.671 187.244 118.233 185.921 124.386 182.726C134.052 177.676 142.828 171.4 150.73 163.881C159.327 155.781 166.662 146.649 172.734 136.516C177.138 128.771 180.717 120.655 183.469 112.184C183.89 111.135 184.279 110.087 184.668 109.038C184.149 112.345 183.21 115.621 182.045 118.751C178.515 128.013 174.03 136.806 168.605 145.1C163.894 152.409 158.664 159.492 152.721 165.882C144.901 174.304 136.4 181.613 126.134 186.857C124.871 187.502 122.896 188.809 121.584 189.342C116.84 191.52 113.44 193.602 106.607 195.199C106.607 195.199 97.9119 198.49 95.5641 194.618C95.5641 194.618 95.5803 191.472 98.6729 190.262" fill="#B0B3B5"/>
<path d="M65.4959 53.743C64.9292 54.3884 64.3949 55.0661 63.8929 55.7438C64.913 53.3719 66.4026 51.1937 68.1837 49.3381C69.4953 47.9667 70.9687 46.6759 72.5231 45.5625C76.0044 43.0777 79.7933 41.2545 83.906 40.0928C85.3147 39.6733 86.7719 39.3667 88.213 39.1247C95.386 37.8661 102.948 38.1727 110.056 39.7055C119.01 41.5933 127.122 45.3044 134.392 50.871C134.667 51.0807 134.943 51.3066 135.202 51.5325C138.456 53.985 141.727 56.5828 144.042 59.9873C146.261 62.2623 148.171 65.1827 148.689 68.3613C148.511 68.555 148.463 69.0552 148.349 69.3133C148.317 69.394 148.285 69.4585 148.22 69.5392C148.171 69.5876 148.123 69.6199 148.058 69.6521C147.977 69.6683 147.912 69.6683 147.831 69.6521C147.718 69.6037 147.621 69.5392 147.524 69.4747C146.536 68.555 145.743 67.4255 144.965 66.3445C144.156 65.2312 143.33 64.1017 142.326 63.1497C139.331 59.6 135.93 56.4698 132.141 53.7753C125.227 48.7896 117.536 44.8365 109.36 42.4001C100.956 39.8991 92.7467 39.2215 84.1489 41.0447C83.2097 41.2545 82.303 41.5288 81.3963 41.8354C78.3846 42.9164 75.5834 44.3847 72.9927 46.2564C70.1106 48.37 67.6008 50.8871 65.5121 53.7914M51.0852 114.975C51.7814 115.589 52.4939 116.153 53.2549 116.702C50.6804 115.572 48.3812 114.023 46.341 112.087C44.8351 110.651 43.475 109.102 42.2606 107.424C38.6175 102.342 36.3021 96.6945 35.3144 90.5147C33.9542 82.7861 34.2781 74.654 35.9296 67.006C37.9536 57.3573 41.9692 48.6282 47.9602 40.8188C48.1868 40.5123 48.4459 40.238 48.6726 39.9476C51.3281 36.4463 54.1292 32.9127 57.8048 30.4279C60.2659 28.0399 63.4072 25.9908 66.8398 25.426C67.0665 25.6358 67.5846 25.6842 67.8761 25.7971C67.9571 25.8294 68.0218 25.8617 68.1028 25.9262C68.1675 25.9746 68.1999 26.0392 68.2323 26.1198C68.2323 26.2005 68.2323 26.2812 68.2161 26.3619C68.1675 26.4748 68.1028 26.5877 68.0218 26.6846C67.0341 27.7495 65.8197 28.6046 64.6377 29.4598C63.4395 30.3311 62.2251 31.2024 61.2051 32.2996C57.3676 35.5266 53.9997 39.1731 51.0852 43.2552C45.6933 50.7096 41.4349 58.9708 38.8118 67.7966C36.1078 76.8322 35.3791 85.6742 37.3545 94.9357C37.565 95.92 37.8889 96.9365 38.1965 97.9046C39.3623 101.115 40.9653 104.181 42.9731 106.956C45.2561 110.07 47.9602 112.749 51.1014 115.008M112.355 167.527C111.238 167.947 110.088 168.286 108.922 168.56C112.145 167.156 115.172 165.43 117.99 163.316C120.71 161.315 123.106 158.992 125.195 156.346C129.389 151.005 132.433 145.019 134.538 138.581C134.716 138.032 134.894 137.468 135.04 136.903C136.999 129.626 137.873 122.365 137.371 114.814C136.934 108.215 135.412 101.47 132.287 95.5973C129.437 90.2405 125.114 84.9159 120.079 81.5437C118.297 80.4626 116.403 79.6881 114.363 79.2525C112.323 78.8168 110.282 78.72 108.21 78.9782C107.692 79.0266 107.19 79.1073 106.688 79.2041C103.304 80.4788 100.357 82.544 97.248 84.3673C96.9566 84.2544 96.4061 84.4318 96.0984 84.4641C96.0175 84.4641 95.9203 84.4641 95.8394 84.4641C95.7584 84.4641 95.6936 84.4157 95.6451 84.3512C95.5803 84.2866 95.5641 84.2059 95.5641 84.1091C95.5641 83.9639 95.5965 83.8349 95.6451 83.6896C96.3413 82.0761 97.6043 80.7208 98.9482 79.5913C100.438 78.3651 102.106 77.3486 103.806 76.4289C105.036 75.9125 106.38 75.4608 107.692 75.2349C109.813 74.8638 111.934 74.8315 114.071 75.1542C116.209 75.4769 118.216 76.1384 120.127 77.1388C126.992 80.7369 132.32 86.9812 135.704 93.887C138.829 100.293 140.043 107.634 140.027 114.733C140.027 122.43 138.651 129.965 136.238 137.274C135.04 140.921 133.469 144.519 131.639 147.907C130.02 151.07 128.093 154.151 125.827 156.894C122.135 161.396 117.698 165.172 112.323 167.511" fill="#211E1E"/>
<path d="M40.0099 193.343C42.1311 194.005 51.3118 197.797 55.3436 198.862C64.6863 201.879 74.6766 203.734 85.2337 204.364C93.0381 204.831 101.183 204.525 109.392 203.444C118.297 202.347 127.3 200.056 136.108 196.522C139.136 195.312 142.018 193.844 144.771 192.101C143.783 192.52 142.796 192.924 141.792 193.311C134.182 196.845 126.248 199.475 118.022 201.185C107.109 203.17 96.3736 202.992 86.3833 201.605C67.536 198.974 54.8902 189.842 44.9484 187.309C43.4102 187.115 37.0792 183.13 35.5896 182.839C35.5896 182.839 29.5824 179.887 29.2748 184.872C29.2748 184.872 29.1128 189.987 40.0261 193.343M187.971 133.063C190.254 123.914 193.104 115.911 193.039 106.472C193.006 99.4375 192.229 92.4671 190.723 85.5936C189.153 78.0908 186.449 71.0237 182.595 64.3922C181.284 62.1494 179.713 60.1003 177.899 58.2286C178.353 58.9708 178.79 59.713 179.211 60.4552C183.065 66.1186 186.012 72.2177 188.052 78.7524C190.578 87.6912 191.08 97.1463 190.367 106.359C189.331 119.977 181.996 132.53 179.486 145.906C179.405 147.31 179.114 148.714 178.936 150.101C178.936 150.101 175.811 158.137 178.855 160.444C178.855 160.444 181.364 163.316 183.388 155.975C183.388 155.975 184.975 148.278 185.315 146.003M17.1957 38.6245C17.2766 38.5116 17.3576 38.4148 17.4547 38.318C21.3408 33.8163 24.2553 30.4441 28.8376 26.6362C32.4807 23.5706 36.383 20.9083 40.5604 18.6332C45.0618 16.2775 49.8707 14.2768 54.8416 13.1635C56.558 12.7762 58.2905 12.389 60.023 11.9856C59.4239 11.9695 58.8248 11.9695 58.2257 11.9856C53.5787 12.5503 46.4219 13.9218 42.1311 15.7612C38.4069 17.2456 34.8609 18.2944 27.1536 23.5222C22.0532 27.0073 17.0985 30.912 13.2772 35.7686C11.1399 38.3825 9.48836 41.2707 8.29016 44.417C8.29016 44.417 3.75645 52.5329 8.2092 56.2117C8.2092 56.2117 10.4113 56.6635 12.4676 53.1299C12.4676 53.1299 13.9087 50.4999 14.6697 44.9172C14.6697 44.9172 16.5804 39.2861 17.1795 38.5923" fill="#B0B3B5"/>
<mask id="mask0_65_151" style="mask-type:luminance" maskUnits="userSpaceOnUse" x="122" y="86" width="127" height="154">
<path d="M248.609 86.4648H122.928V239.893H248.609V86.4648Z" fill="white"/>
</mask>
<g mask="url(#mask0_65_151)">
<mask id="mask1_65_151" style="mask-type:luminance" maskUnits="userSpaceOnUse" x="123" y="87" width="126" height="152">
<path d="M174.256 136.919C173.932 135.757 174.532 134.596 177.284 136.016C176.928 137.855 176.329 138.484 175.73 138.484C175.082 138.484 174.467 137.71 174.256 136.919ZM123.657 120.268C124.207 122.801 124.855 126.98 125.908 129.658C126.96 132.789 131.024 135.386 134.052 137.581C141.014 142.405 147.054 146.778 158.048 142.292C163.667 144.987 158.728 148.698 160.007 153.425C161.643 159.686 160.153 154.022 167.245 150.198C173.301 150.489 183.55 168.286 186.481 173.836C189.088 178.87 228.191 232.906 232.191 238.408L248.204 225.387C244.853 225.872 212.339 192.601 210.38 189.471C207.417 185.147 202.948 181.145 200.714 177.176C196.358 172.868 192.245 165.591 188.116 159.234C184.83 153.942 176.394 146.423 177.397 141.259C180.231 140.098 183.631 141.388 186.724 142.663C189.8 143.938 192.585 145.212 194.172 144.083C191.743 139.581 189.736 134.047 185.898 131.223C181.041 127.674 173.479 130.126 169.593 125.366C169.868 121.639 173.301 120.074 173.625 116.04C173.997 110.78 177.754 108.037 171.309 98.6629C166.306 91.386 155.36 88.7722 149.467 88.1106C148.366 87.9815 147.248 87.9331 146.147 87.917C128.158 87.917 120.856 105.472 123.657 120.252" fill="white"/>
</mask>
<g mask="url(#mask1_65_151)">
<path d="M235.478 49.7899L75.6805 102.955L133.566 276.552L293.363 223.387L235.478 49.7899Z" fill="url(#paint0_linear_65_151)"/>
</g>
</g>
<defs>
<linearGradient id="paint0_linear_65_151" x1="144.478" y1="25.7331" x2="201.639" y2="198.37" gradientUnits="userSpaceOnUse">
<stop stop-color="#231F20"/>
<stop offset="0.12" stop-color="#231F20"/>
<stop offset="0.14" stop-color="#232021"/>
<stop offset="0.15" stop-color="#272527"/>
<stop offset="0.16" stop-color="#2B2A2D"/>
<stop offset="0.17" stop-color="#2F2F32"/>
<stop offset="0.18" stop-color="#333438"/>
<stop offset="0.19" stop-color="#35383C"/>
<stop offset="0.2" stop-color="#393C41"/>
<stop offset="0.21" stop-color="#3C4046"/>
<stop offset="0.22" stop-color="#3D4249"/>
<stop offset="0.23" stop-color="#40474E"/>
<stop offset="0.24" stop-color="#414950"/>
<stop offset="0.25" stop-color="#444C55"/>
<stop offset="0.26" stop-color="#454E57"/>
<stop offset="0.27" stop-color="#47515B"/>
<stop offset="0.28" stop-color="#48555F"/>
<stop offset="0.29" stop-color="#495662"/>
<stop offset="0.3" stop-color="#4B5966"/>
<stop offset="0.31" stop-color="#4B5B68"/>
<stop offset="0.32" stop-color="#4C5E6B"/>
<stop offset="0.33" stop-color="#4D5F6E"/>
<stop offset="0.34" stop-color="#4D6171"/>
<stop offset="0.35" stop-color="#4E6474"/>
<stop offset="0.36" stop-color="#4E6576"/>
<stop offset="0.37" stop-color="#4F6779"/>
<stop offset="0.38" stop-color="#4F697C"/>
<stop offset="0.39" stop-color="#4F6A7E"/>
<stop offset="0.4" stop-color="#4E6C81"/>
<stop offset="0.41" stop-color="#4E6E84"/>
<stop offset="0.42" stop-color="#4D6F86"/>
<stop offset="0.43" stop-color="#4D7189"/>
<stop offset="0.44" stop-color="#4D728B"/>
<stop offset="0.45" stop-color="#4C748E"/>
<stop offset="0.46" stop-color="#4C7590"/>
<stop offset="0.47" stop-color="#4B7793"/>
<stop offset="0.48" stop-color="#4A7996"/>
<stop offset="0.49" stop-color="#497A98"/>
<stop offset="0.5" stop-color="#487B9A"/>
<stop offset="0.51" stop-color="#467D9C"/>
<stop offset="0.52" stop-color="#457EA0"/>
<stop offset="0.53" stop-color="#4280A3"/>
<stop offset="0.54" stop-color="#4281A4"/>
<stop offset="0.55" stop-color="#4082A6"/>
<stop offset="0.56" stop-color="#3D84A9"/>
<stop offset="0.57" stop-color="#3A85AC"/>
<stop offset="0.58" stop-color="#3786AE"/>
<stop offset="0.59" stop-color="#3488B1"/>
<stop offset="0.6" stop-color="#3089B3"/>
<stop offset="0.61" stop-color="#2B8AB5"/>
<stop offset="0.62" stop-color="#258BB8"/>
<stop offset="0.63" stop-color="#1F8CBA"/>
<stop offset="0.64" stop-color="#188CBB"/>
<stop offset="0.65" stop-color="#048EBE"/>
<stop offset="0.66" stop-color="#008FC1"/>
<stop offset="0.67" stop-color="#0090C2"/>
<stop offset="0.68" stop-color="#0090C4"/>
<stop offset="0.69" stop-color="#0091C6"/>
<stop offset="0.7" stop-color="#0092C8"/>
<stop offset="0.71" stop-color="#0093CB"/>
<stop offset="0.72" stop-color="#0094CD"/>
<stop offset="0.73" stop-color="#0094CF"/>
<stop offset="0.74" stop-color="#0095D0"/>
<stop offset="0.75" stop-color="#0096D3"/>
<stop offset="0.76" stop-color="#0096D4"/>
<stop offset="0.77" stop-color="#0097D6"/>
<stop offset="0.78" stop-color="#0098D9"/>
<stop offset="0.79" stop-color="#009ADB"/>
<stop offset="0.8" stop-color="#009BDC"/>
<stop offset="0.81" stop-color="#009CDD"/>
<stop offset="0.82" stop-color="#009EDF"/>
<stop offset="0.83" stop-color="#009EE0"/>
<stop offset="0.84" stop-color="#00A0E1"/>
<stop offset="0.85" stop-color="#00A2E3"/>
<stop offset="0.86" stop-color="#00A2E4"/>
<stop offset="0.87" stop-color="#00A3E4"/>
<stop offset="0.88" stop-color="#00A4E6"/>
<stop offset="0.89" stop-color="#00A5E7"/>
<stop offset="0.9" stop-color="#00A6E8"/>
<stop offset="0.91" stop-color="#00A8EA"/>
<stop offset="0.92" stop-color="#00A9EA"/>
<stop offset="0.93" stop-color="#00ABEC"/>
<stop offset="0.94" stop-color="#00ABED"/>
<stop offset="0.95" stop-color="#00AEEF"/>
<stop offset="0.97" stop-color="#00AEEF"/>
<stop offset="1" stop-color="#00AEEF"/>
</linearGradient>
</defs>
</svg>
