<svg width="566" height="376" viewBox="0 0 566 376" fill="none" xmlns="http://www.w3.org/2000/svg">
<path d="M90.4991 98.0605C88.0568 98.0605 86.0808 100.038 86.0808 102.481V362.808C86.0808 365.252 88.0568 367.229 90.4991 367.229H552.985C555.427 367.229 557.403 365.252 557.403 362.808V102.481C557.403 100.038 555.427 98.0605 552.985 98.0605H90.4991ZM552.985 375.469H90.4991C83.5157 375.469 77.8456 369.795 77.8456 362.808V102.481C77.8456 95.494 83.5157 89.8206 90.4991 89.8206H552.985C559.968 89.8206 565.638 95.494 565.638 102.481V362.808C565.638 369.795 559.968 375.469 552.985 375.469Z" fill="#D5D5D6"/>
<path d="M206.357 217.288H184.044V274.047H206.357V217.288Z" fill="#6C63FF"/>
<path d="M242.513 211.836H220.201V274.047H242.513V211.836Z" fill="#6C63FF"/>
<path d="M278.67 233.117H256.357V274.035H278.67V233.117Z" fill="#6C63FF"/>
<path d="M314.826 220.493H292.514V274.047H314.826V220.493Z" fill="#6C63FF"/>
<path d="M350.97 231.312H328.658V274.035H350.97V231.312Z" fill="#6C63FF"/>
<path d="M387.127 199.421H364.814V274.035H387.127V199.421Z" fill="#6C63FF"/>
<path d="M423.283 211.836H400.971V274.047H423.283V211.836Z" fill="#6C63FF"/>
<path d="M459.44 201.017H437.127V274.035H459.44V201.017Z" fill="#6C63FF"/>
<path d="M108.921 125.912H273.576C275.061 125.912 276.264 127.115 276.264 128.601C276.264 130.087 275.061 131.291 273.576 131.291H108.921C107.436 131.291 106.233 130.087 106.233 128.601C106.233 127.115 107.436 125.912 108.921 125.912Z" fill="#D5D5D6"/>
<path d="M64.4802 62.5464L84.7185 69.2022V40.0492H66.358L64.4802 62.5464Z" fill="#F3A3A6"/>
<path d="M102.392 27.941C102.392 29.2672 102.257 30.5812 101.999 31.8829C101.741 33.1846 101.361 34.4494 100.845 35.6652C100.342 36.8932 99.7162 38.0475 98.9798 39.1527C98.2434 40.2579 97.4088 41.2772 96.4761 42.2105C95.5433 43.1438 94.5246 43.9788 93.4201 44.7156C92.3155 45.4524 91.1618 46.0787 89.9345 46.5822C88.7072 47.0857 87.4553 47.4664 86.1544 47.7243C84.8535 47.9821 83.5403 48.1172 82.2148 48.1172C80.8893 48.1172 79.576 47.9821 78.2751 47.7243C76.9742 47.4664 75.71 47.0857 74.495 46.5822C73.2677 46.0787 72.114 45.4524 71.0094 44.7156C69.9049 43.9788 68.8862 43.1438 67.9535 42.2105C67.0207 41.2772 66.1861 40.2579 65.4498 39.1527C64.7134 38.0475 64.0874 36.8932 63.5843 35.6652C63.0811 34.4372 62.7006 33.1846 62.4306 31.8829C62.1606 30.5812 62.0378 29.2672 62.0378 27.941C62.0378 26.6147 62.1728 25.3007 62.4306 23.999C62.6883 22.6973 63.0688 21.4325 63.5843 20.2168C64.0874 18.9888 64.7134 17.8344 65.4498 16.7292C66.1861 15.624 67.0207 14.6047 67.9535 13.6715C68.8862 12.7382 69.9049 11.9031 71.0094 11.1663C72.114 10.4295 73.2677 9.80321 74.495 9.29973C75.7223 8.79624 76.9742 8.41556 78.2751 8.15767C79.576 7.89979 80.8893 7.76471 82.2148 7.76471C83.5403 7.76471 84.8535 7.89979 86.1544 8.15767C87.4553 8.41556 88.7195 8.79624 89.9345 9.29973C91.1618 9.80321 92.3155 10.4295 93.4201 11.1663C94.5246 11.9031 95.5433 12.7382 96.4761 13.6715C97.4088 14.6047 98.2434 15.624 98.9798 16.7292C99.7162 17.8344 100.342 18.9888 100.845 20.2168C101.348 21.4448 101.729 22.6973 101.999 23.999C102.257 25.3007 102.392 26.6147 102.392 27.941Z" fill="#F3A3A6"/>
<path d="M77.0847 29.5251L79.8706 32.9022L84.9026 24.0973C84.9026 24.0973 91.3214 24.4289 91.3214 19.6642C91.3214 14.8995 97.2125 14.7644 97.2125 14.7644C97.2125 14.7644 105.546 0.200173 88.2777 4.03157C88.2777 4.03157 76.2992 -4.18383 70.3467 2.8404C70.3467 2.8404 52.0844 12.0382 57.3128 28.0638L65.9898 44.5683L67.9535 40.8228C67.9535 40.8228 66.763 25.1288 77.0847 29.5006V29.5251Z" fill="#2F2E43"/>
<path d="M75.2192 338.69H58.9205V361.813H75.2192V338.69Z" fill="#F3A3A6"/>
<path d="M73.415 375.051C70.629 375.309 56.6868 376.402 55.9872 373.209C55.349 370.274 56.2818 367.204 56.4168 366.787C57.7545 353.45 58.2455 353.303 58.5523 353.205C59.0309 353.07 60.4178 353.721 62.6638 355.17L62.811 355.268L62.8479 355.428C62.8847 355.636 63.8911 360.524 68.6039 359.787C71.844 359.271 72.8872 358.559 73.2309 358.215C72.9486 358.092 72.6172 357.871 72.3718 357.491C72.0158 356.95 71.9545 356.238 72.1877 355.415C72.8013 353.205 74.6177 349.926 74.6914 349.791L74.9 349.423L93.4201 361.924L104.859 365.19C105.718 365.436 106.417 366.05 106.761 366.885C107.24 368.039 106.945 369.378 106.024 370.213C103.938 372.079 99.8266 375.284 95.4819 375.677C94.3283 375.776 92.8064 375.825 91.0882 375.825C83.933 375.825 73.5009 375.088 73.415 375.076V375.051Z" fill="#2F2E43"/>
<path d="M24.3715 304.009L9.63745 321.824L22.1939 332.221L36.928 314.407L24.3715 304.009Z" fill="#F3A3A6"/>
<path d="M12.3933 341.244C10.086 339.66 -1.35253 331.616 0.132509 328.718C1.50709 326.053 4.19489 324.285 4.56309 324.052C14.087 314.633 14.5779 314.829 14.8602 314.952C15.3143 315.149 15.9648 316.536 16.7748 319.078L16.8239 319.238L16.738 319.385C16.6398 319.57 14.2834 323.978 18.3948 326.41C21.2176 328.08 22.4818 328.19 22.9604 328.141C22.8254 327.871 22.7027 327.478 22.7518 327.036C22.8254 326.397 23.2304 325.808 23.9423 325.317C25.8323 324.003 29.3056 322.64 29.4651 322.578L29.8579 322.418L36.1662 343.86L42.8919 353.671C43.3951 354.408 43.5423 355.329 43.2846 356.201C42.9287 357.392 41.8486 358.24 40.5845 358.289C37.7985 358.399 32.5825 358.24 28.9865 355.771C28.0415 355.12 26.8387 354.187 25.5132 353.094C20.0026 348.526 12.4301 341.305 12.3688 341.244H12.3933Z" fill="#2F2E43"/>
<path d="M102.159 160.333H46.267L58.6996 345.149H77.3301L102.171 160.333H102.159Z" fill="#2F2E43"/>
<path d="M90.7814 170.513L102.159 160.333L96.4638 261.988L32.8157 322.554L16.9467 309.438L54.0358 261.288L90.7814 170.513Z" fill="#2F2E43"/>
<path d="M90.7813 51.6171L63.1792 47.1348L54.6126 62.1289C43.7141 81.1876 39.2713 103.267 41.9468 125.052L46.2792 160.345H102.171L90.7936 51.6294L90.7813 51.6171Z" fill="#6C63FF"/>
<path d="M68.3707 193.612C69.5121 199.31 67.3766 204.517 63.621 205.241C59.8532 205.954 55.8767 201.914 54.7353 196.203C54.2567 193.931 54.3303 191.574 54.9808 189.339L50.452 165.11L62.2955 163.268L65.4988 187.349C66.9593 189.191 67.9534 191.34 68.3707 193.624V193.612Z" fill="#F3A3A6"/>
<path d="M53.9622 187.055L36.559 133.292V133.206L43.125 77.8474C44.1314 69.3619 51.3235 62.9762 59.8532 62.9762C65.0816 62.9762 69.9172 65.334 73.1327 69.4601C76.3482 73.5862 77.4651 78.8421 76.201 83.9261L64.5906 130.37L67.3643 183.076L53.9376 187.067L53.9622 187.055Z" fill="#6C63FF"/>
</svg>
