<svg width="181" height="166" viewBox="0 0 181 166" fill="none" xmlns="http://www.w3.org/2000/svg">
<path d="M179.422 40.2525C178.811 39.1791 177.815 38.9771 176.627 39.0865C134.429 43.016 92.2272 46.9391 50.027 50.8571C40.7363 51.7193 31.453 52.5942 22.16 53.4449C21.0938 53.5436 20.2662 53.9445 19.863 54.9844C19.4439 56.0633 19.7195 56.9547 20.7397 57.8562C28.4766 64.6724 36.2122 71.4936 43.9697 78.2936C44.4298 78.6985 44.6581 79.0791 44.6082 79.7101C44.0949 85.6476 43.6082 91.5868 43.1164 97.5247C42.3506 106.789 41.5834 116.059 40.8276 125.327C40.7111 126.752 41.1535 127.607 42.1957 128.103C43.1699 128.57 44.1807 128.293 45.1786 127.278C47.0349 125.382 48.8876 123.48 50.7389 121.582C55.7248 116.475 60.712 111.363 65.7586 106.191C67.1528 108.546 68.5353 110.844 69.8871 113.155C76.9404 125.17 83.9872 137.189 91.0327 149.213C92.3623 151.486 94.1075 151.602 95.731 149.524C105.514 137.023 115.296 124.527 125.082 112.032C143.044 89.0952 161 66.1625 178.964 43.2376C179.696 42.3022 180.039 41.3273 179.424 40.2475L179.422 40.2525ZM48.6866 74.9985C47.9612 75.1994 47.5025 75.0928 46.9511 74.6039C40.9252 69.2641 34.8709 63.9492 28.8294 58.6268C28.5631 58.3876 28.2982 58.1434 27.8321 57.7207C68.8225 53.9117 109.536 50.1259 150.254 46.3414C150.268 46.3937 150.287 46.4422 150.295 46.4931C149.923 46.6099 149.554 46.7331 149.179 46.8384C115.679 56.2225 82.1759 65.5952 48.6802 75.0022L48.6866 74.9985ZM65.2482 100.092C64.855 100.307 64.5083 100.631 64.1895 100.951C58.5803 106.687 52.9797 112.431 47.3806 118.17C47.0166 118.538 46.6526 118.907 46.095 119.472C46.2657 117.319 46.4117 115.42 46.5679 113.523C47.4532 102.661 48.355 91.7975 49.2201 80.9296C49.2878 80.0706 49.5356 79.6713 50.4433 79.4164C85.4563 69.6417 120.464 59.8275 155.468 50.0234C155.742 49.9506 156.018 49.8728 156.295 49.8064C156.434 49.7136 156.579 49.6171 156.721 49.5307C156.764 49.5746 156.806 49.6184 156.842 49.666C156.661 49.7149 156.476 49.7575 156.295 49.8064C156.219 49.8508 156.145 49.9016 156.074 49.9473C155.871 50.0771 155.673 50.2083 155.474 50.3445C155.06 50.6179 154.651 50.8926 154.236 51.166C154.031 51.3059 153.822 51.4394 153.613 51.5729C153.404 51.7063 153.195 51.8398 152.987 51.9683C152.915 52.014 152.843 52.0597 152.768 52.0991C152.697 52.1397 152.631 52.1868 152.56 52.2275C152.277 52.3953 151.994 52.563 151.708 52.7193C141.464 58.3723 131.2 63.9768 120.939 69.5927C109.441 75.8842 97.9441 82.1707 86.451 88.4636C79.3809 92.3357 72.3122 96.2026 65.2495 100.087L65.2482 100.092ZM93.7103 144.353C85.6233 130.578 77.6191 116.938 69.5432 103.182C102.367 85.2076 135.141 67.258 167.92 49.3097C167.954 49.3623 167.99 49.4098 168.026 49.4574C143.282 81.0535 118.539 112.645 93.7103 144.353Z" fill="white"/>
</svg>
