<svg width="555" height="301" viewBox="0 0 555 301" fill="none" xmlns="http://www.w3.org/2000/svg">
<path d="M554.503 299.445H0.496582V300.66H554.503V299.445Z" fill="#CCCCCC"/>
<path d="M554.503 225.33H0.496582V226.545H554.503V225.33Z" fill="#CCCCCC"/>
<path d="M554.503 150H0.496582V151.215H554.503V150Z" fill="#CCCCCC"/>
<path d="M554.503 75.885H0.496582V77.1H554.503V75.885Z" fill="#CCCCCC"/>
<path d="M554.503 0.555H0.496582V1.77H554.503V0.555Z" fill="#CCCCCC"/>
<path d="M554.503 261.78H0.496582V262.995H554.503V261.78Z" fill="#EBEBEB"/>
<path d="M554.503 187.665H0.496582V188.88H554.503V187.665Z" fill="#EBEBEB"/>
<path d="M554.503 112.335H0.496582V113.55H554.503V112.335Z" fill="#EBEBEB"/>
<path d="M554.503 38.22H0.496582V39.435H554.503V38.22Z" fill="#EBEBEB"/>
<path d="M18.7731 67.38H9.63489V225.33H18.7731V67.38Z" fill="#3366CC"/>
<path d="M64.4645 89.25H56.4685V225.33H64.4645V89.25Z" fill="#3366CC"/>
<path d="M111.298 84.39H102.16V225.33H111.298V84.39Z" fill="#3366CC"/>
<path d="M156.989 77.1H147.851V225.33H156.989V77.1Z" fill="#3366CC"/>
<path d="M202.681 63.735H194.685V225.33H202.681V63.735Z" fill="#3366CC"/>
<path d="M249.514 67.38H240.376V225.33H249.514V67.38Z" fill="#3366CC"/>
<path d="M295.205 60.09H286.067V225.33H295.205V60.09Z" fill="#3366CC"/>
<path d="M340.897 58.875H332.901V225.33H340.897V58.875Z" fill="#3366CC"/>
<path d="M387.73 57.66H378.592V225.33H387.73V57.66Z" fill="#3366CC"/>
<path d="M433.421 54.015H424.283V225.33H433.421V54.015Z" fill="#3366CC"/>
<path d="M479.113 56.445H471.117V225.33H479.113V56.445Z" fill="#3366CC"/>
<path d="M525.946 78.315H516.808V225.33H525.946V78.315Z" fill="#3366CC"/>
<path d="M27.9114 79.53H19.9154V225.33H27.9114V79.53Z" fill="#A3A8B9"/>
<path d="M74.7449 81.96H65.6067V225.33H74.7449V81.96Z" fill="#A3A8B9"/>
<path d="M120.436 46.725H112.44V225.33H120.436V46.725Z" fill="#A3A8B9"/>
<path d="M166.128 55.23H158.132V225.33H166.128V55.23Z" fill="#A3A8B9"/>
<path d="M212.961 40.65H203.823V225.33H212.961V40.65Z" fill="#A3A8B9"/>
<path d="M258.652 40.65H250.656V225.33H258.652V40.65Z" fill="#A3A8B9"/>
<path d="M304.344 17.565H296.348V225.33H304.344V17.565Z" fill="#A3A8B9"/>
<path d="M351.177 12.705H342.039V225.33H351.177V12.705Z" fill="#A3A8B9"/>
<path d="M396.868 26.07H388.872V225.33H396.868V26.07Z" fill="#A3A8B9"/>
<path d="M442.56 33.36H434.564V225.33H442.56V33.36Z" fill="#A3A8B9"/>
<path d="M489.393 46.725H480.255V225.33H489.393V46.725Z" fill="#A3A8B9"/>
<path d="M535.085 50.37H527.089V225.33H535.085V50.37Z" fill="#A3A8B9"/>
<path d="M38.192 225.33H29.0537V225.938H38.192V225.33Z" fill="#FF9900"/>
<path d="M83.8832 225.329H75.8872V225.937H83.8832V225.329Z" fill="#FF9900"/>
<path d="M130.717 225.327H121.578V225.934H130.717V225.327Z" fill="#FF9900"/>
<path d="M176.408 225.328H167.27V225.936H176.408V225.328Z" fill="#FF9900"/>
<path d="M222.099 225.328H214.103V225.936H222.099V225.328Z" fill="#FF9900"/>
<path d="M268.933 225.328H259.795V225.935H268.933V225.328Z" fill="#FF9900"/>
<path d="M314.624 225.327H305.486V225.934H314.624V225.327Z" fill="#FF9900"/>
<path d="M360.315 225.327H352.319V225.934H360.315V225.327Z" fill="#FF9900"/>
<path d="M407.149 225.328H398.011V225.935H407.149V225.328Z" fill="#FF9900"/>
<path d="M452.84 225.329H443.702V225.936H452.84V225.329Z" fill="#FF9900"/>
<path d="M498.531 225.329H490.536V225.937H498.531V225.329Z" fill="#FF9900"/>
<path d="M545.365 225.328H536.227V225.935H545.365V225.328Z" fill="#FF9900"/>
<path d="M554.503 225.33H0.496582V226.545H554.503V225.33Z" fill="#333333"/>
</svg>
