<svg width="718" height="220" viewBox="0 0 718 220" fill="none" xmlns="http://www.w3.org/2000/svg">
<path d="M0 220C0 220 43.5151 179.968 65.2727 144.441C87.0303 108.915 108.788 17.2818 130.545 6.83875C152.303 -3.60431 174.061 68.0638 195.818 81.7831C217.576 95.5024 239.333 91.5401 261.091 89.1546C282.848 86.7691 304.606 80.2678 326.364 67.4699C348.121 54.6721 369.879 23.0869 391.636 12.3674C413.394 1.64794 435.152 -3.91146 456.909 3.15296C478.667 10.2174 500.424 38.5775 522.182 54.754C543.939 70.9305 565.697 86.4927 587.455 100.212C609.212 113.931 630.97 144.544 652.727 137.07C674.485 129.596 718 55.3683 718 55.3683" stroke="#FF9900" stroke-width="2"/>
</svg>
